# xmcd CD database file
# Copyright (C) 1993-1996 Ti Kan
#
# Track frame offsets:
#  150
#  13882
#  32980
#  48037
#  63487
#  84129
#  99272
#  113807
#  125525
#  136995
#
# Disc length: 2124 seconds
#
# Revision: 5
# Processed by: cddbd v1.5.1PL0 Copyright (c) Steve Scherf et al.
# Submitted via: Advanced CD Ripper Pro 2.0
#
DISCID=7a084a0a
DTITLE=Rolando Boldrin - Disco da Moda
DYEAR=2003
DGENRE=
TTITLE0=Trecho do Show de Rolando Boldrin
TTITLE1=Moda do Fim do Mundo
TTITLE2=Moda do Dente
TTITLE3=Moda do Dente
TTITLE4=Moda da Pinga
TTITLE5=Moda da Mula Preta
TTITLE6=Moda do Jogo
TTITLE7=Moda da Revolucao
TTITLE8=Moda da Corinthiano
TTITLE9=Moda do Lenco
EXTD=
EXTT0=
EXTT1=
EXTT2=
EXTT3=
EXTT4=
EXTT5=
EXTT6=
EXTT7=
EXTT8=
EXTT9=
PLAYORDER=
